<?xml version="1.0" encoding="UTF-8"?>
<!DOCTYPE svg PUBLIC "-//W3C//DTD SVG 1.1//EN" "http://www.w3.org/Graphics/SVG/1.1/DTD/svg11.dtd">
<!-- Creator: CorelDRAW 2020 (64-Bit) -->
<svg xmlns="http://www.w3.org/2000/svg" xml:space="preserve" width="143.999mm" height="72.0006mm" version="1.1" style="shape-rendering:geometricPrecision; text-rendering:geometricPrecision; image-rendering:optimizeQuality; fill-rule:evenodd; clip-rule:evenodd"
viewBox="0 0 18974.53 9487.4"
 xmlns:xlink="http://www.w3.org/1999/xlink"
 xmlns:xodm="http://www.corel.com/coreldraw/odm/2003">
 <defs>
  <style type="text/css">
   <![CDATA[
    .fil0 {fill:white}
    .fil1 {fill:#55C171}
    .fil2 {fill:#4D22A8}
   ]]>
  </style>
 </defs>
 <g id="Plan_x0020_1">
  <metadata id="CorelCorpID_0Corel-Layer"/>
  <path class="fil0" d="M14230.93 3162.51l0 -0.04 0 -790.57 -1185.92 0 0 790.62c0,218.29 -177,395.29 -395.31,395.29l-3162.43 -0.01 0 1185.88 3162.41 0.01 0 0c217.73,0 395.31,-177.57 395.31,-395.31l0 -111.79 0 -283.5c0,-218.29 177,-395.28 395.32,-395.28l395.31 0c217.73,0 395.31,-177.57 395.31,-395.31z"/>
  <path class="fil0" d="M17393.29 4743.75l-0.04 0 -790.57 0 0 1185.92 790.62 0c218.29,0 395.28,176.99 395.28,395.31l0 3162.41 1185.88 0 0 -3162.41 0 0c0,-217.73 -177.56,-395.31 -395.29,-395.31l-111.79 0 -283.5 0c-218.29,0 -395.28,-177 -395.28,-395.31l0 -395.31c0,-217.73 -177.57,-395.31 -395.31,-395.31z"/>
  <path class="fil0" d="M3162.45 0.01l-0.04 0 -790.57 0 0 1185.92 790.62 0c218.29,0 395.29,177 395.29,395.31l-0.01 3162.43 1185.88 0 0.01 -3162.41 0 0c0,-217.73 -177.57,-395.31 -395.31,-395.32l-111.79 0 -283.5 0c-218.29,0 -395.28,-176.99 -395.28,-395.31l0 -395.31c0,-217.73 -177.57,-395.31 -395.31,-395.31z"/>
  <path class="fil1" d="M11068.48 9487.39l0.04 0 790.57 0 0 -1185.92 -790.62 0c-218.29,0 -395.29,-176.99 -395.29,-395.31l0.01 -3162.41 -1185.88 0 -0.01 3162.41 0 0c0,217.73 177.57,395.31 395.31,395.31l111.79 0 283.5 0c218.29,0 395.28,177 395.28,395.31l0 395.31c0,217.73 177.57,395.31 395.31,395.31z"/>
  <path class="fil1" d="M9487.3 1581.29l0 0.04 0 790.57 1185.92 0 0 -790.62c0,-218.29 176.99,-395.29 395.31,-395.29l3162.41 0.01 0 -1185.88 -3162.41 -0.01 0 0c-217.73,0 -395.31,177.57 -395.31,395.31l0 111.79 0 283.5c0,218.29 -177,395.28 -395.31,395.28l-395.31 0c-217.73,0 -395.31,177.57 -395.31,395.31z"/>
  <path class="fil1" d="M6324.83 4743.65l0.04 0 790.57 0 0.01 -1185.92 -790.64 0c-218.29,0 -395.28,-177 -395.28,-395.31l0 -3162.43 -1185.88 0 0 3162.41 0 0c0,217.73 177.57,395.31 395.31,395.32l111.79 0 283.49 0c218.29,0 395.29,176.99 395.29,395.31l-0.01 395.31c0,217.73 177.57,395.31 395.31,395.31z"/>
  <path class="fil1" d="M4743.63 7906.11l0 -0.04 0 -790.57 -1185.92 -0.01 0 790.64c0,218.29 -176.99,395.28 -395.31,395.28l-3162.41 0 0 1185.88 3162.41 0 0 0c217.73,0 395.31,-177.57 395.31,-395.31l0 -111.79 0 -283.49c0,-218.29 177,-395.29 395.31,-395.29l395.31 0c217.73,0 395.31,-177.56 395.31,-395.29z"/>
  <path class="fil0" d="M-0 6324.89l0 0.04 0 790.57 1185.92 0 0 -790.62c0,-218.29 177,-395.29 395.31,-395.29l3162.43 0 0 -1185.88 -3162.43 0 0 0c-217.73,0 -395.31,177.57 -395.31,395.31l0 111.79 0 283.5c0,218.29 -176.99,395.28 -395.31,395.28l-395.31 0c-217.73,0 -395.31,177.57 -395.31,395.31z"/>
  <path class="fil2" d="M12649.7 4743.75l-0.04 0 -790.57 0 0 1185.92 790.62 0c218.29,0 395.28,177 395.28,395.31l0 3162.43 1185.88 0 0 -3162.41 0 0c0,-217.73 -177.56,-395.31 -395.29,-395.31l-111.79 0 -283.5 -0.01c-218.29,0 -395.28,-176.99 -395.28,-395.31l0 -395.31c0,-217.73 -177.57,-395.31 -395.31,-395.31z"/>
  <path class="fil2" d="M15812.07 9487.39l0.04 0 790.57 0 0 -1185.92 -790.62 0c-218.29,0 -395.29,-177 -395.29,-395.31l0.01 -3162.43 -1185.88 0 -0.01 3162.41 0 0c0,217.73 177.57,395.31 395.31,395.31l111.79 0 283.5 0.01c218.29,0 395.28,176.99 395.28,395.31l0 395.31c0,217.73 177.57,395.31 395.31,395.31z"/>
  <path class="fil2" d="M14230.89 1581.3l0 0.04 0 790.57 1185.92 0 0 -790.64c0,-218.29 176.99,-395.28 395.31,-395.28l3162.41 0 0 -1185.88 -3162.41 0 0 0c-217.73,0 -395.31,177.57 -395.31,395.31l0 111.79 0 283.49c0,218.29 -177,395.29 -395.31,395.29l-395.31 0c-217.73,0 -395.31,177.57 -395.31,395.31z"/>
  <path class="fil2" d="M18974.53 3162.51l0 -0.04 0 -790.57 -1185.92 0 0 790.62c0,218.29 -177,395.29 -395.31,395.29l-3162.43 0 0 1185.88 3162.43 0 0 0c217.73,0 395.31,-177.57 395.31,-395.31l0 -111.79 0 -283.5c0,-218.29 176.99,-395.28 395.31,-395.28l395.31 0c217.73,0 395.31,-177.57 395.31,-395.31z"/>
  <path class="fil2" d="M7906.05 0.01l-0.04 0 -790.57 0 0 1185.92 790.62 0c218.29,0 395.29,176.99 395.29,395.31l-0.01 3162.41 1185.88 0 0.01 -3162.41 0 0c0,-217.73 -177.57,-395.31 -395.31,-395.31l-111.79 0 -283.5 0c-218.29,0 -395.28,-177 -395.28,-395.31l0 -395.31c0,-217.73 -177.57,-395.31 -395.31,-395.31z"/>
  <path class="fil2" d="M9487.23 7906.11l0 -0.04 0 -790.57 -1185.92 0 0 790.62c0,218.29 -176.99,395.29 -395.31,395.29l-3162.41 -0.01 0 1185.88 3162.41 0.01 0 0c217.73,0 395.31,-177.57 395.31,-395.31l0 -111.79 0 -283.5c0,-218.29 177,-395.28 395.31,-395.28l395.31 0c217.73,0 395.31,-177.57 395.31,-395.31z"/>
  <path class="fil2" d="M4743.6 6324.89l0 0.04 0 790.57 1185.92 0.01 0 -790.64c0,-218.29 177,-395.28 395.31,-395.28l3162.43 0 0 -1185.88 -3162.41 0 0 0c-217.73,0 -395.31,177.57 -395.31,395.31l0 111.79 -0.01 283.49c0,218.29 -176.99,395.29 -395.31,395.28l-395.31 0c-217.73,0 -395.31,177.57 -395.31,395.31z"/>
  <path class="fil2" d="M1581.23 4743.65l0.04 0 790.57 0 0.01 -1185.92 -790.64 0c-218.29,0 -395.28,-176.99 -395.28,-395.31l0 -3162.41 -1185.88 0 0 3162.41 0 0c0,217.73 177.57,395.31 395.31,395.31l111.79 0 283.49 0c218.29,0 395.29,177 395.29,395.31l-0.01 395.31c0,217.73 177.57,395.31 395.31,395.31z"/>
 </g>
</svg>
