<?xml version="1.0" encoding="UTF-8"?>
<!DOCTYPE svg PUBLIC "-//W3C//DTD SVG 1.1//EN" "http://www.w3.org/Graphics/SVG/1.1/DTD/svg11.dtd">
<!-- Creator: CorelDRAW 2020 (64-Bit) -->
<svg xmlns="http://www.w3.org/2000/svg" xml:space="preserve" width="500px" height="500px" version="1.1" style="shape-rendering:geometricPrecision; text-rendering:geometricPrecision; image-rendering:optimizeQuality; fill-rule:evenodd; clip-rule:evenodd"
viewBox="0 0 17097.63 17097.63"
 xmlns:xlink="http://www.w3.org/1999/xlink"
 xmlns:xodm="http://www.corel.com/coreldraw/odm/2003">
 <defs>
  <style type="text/css">
   <![CDATA[
    .fil3 {fill:white}
    .fil2 {fill:#5374CF}
    .fil1 {fill:#55C171}
    .fil0 {fill:#FBE179}
   ]]>
  </style>
 </defs>
 <g id="Plan_x0020_1">
  <metadata id="CorelCorpID_0Corel-Layer"/>
  <path class="fil0" d="M2849.6 3205.8l-712.4 0 -1068.6 0 -1068.6 0 0 1068.6 1068.6 0 1068.6 0 712.4 0c196.18,0 356.2,-160.02 356.2,-356.2l0 -356.2c0,-196.18 160.01,-356.2 356.2,-356.2l356.2 0c196.18,0 356.2,-160.02 356.2,-356.2l0 -712.4 -1068.6 0 0 712.4c0,196.2 -160.02,356.2 -356.2,356.2z"/>
  <path class="fil1" d="M3562.01 1068.6l356.2 0c196.18,0 356.2,160.02 356.2,356.2l0 712.4 -1068.6 0 0 -712.4c0,-196.18 -160.02,-356.2 -356.2,-356.2l-356.2 0c-196.2,0 -356.2,160.02 -356.2,356.2l0 356.2c0,196.18 -160.02,356.2 -356.2,356.2l-356.2 0c-196.18,0 -356.2,-160.02 -356.2,-356.2l0 -356.2c0,-196.18 -160.02,-356.2 -356.2,-356.2l-356.2 0c-196.18,0 -356.2,-160.02 -356.2,-356.2l0 -712.4 1068.6 0 0 712.4c0,196.2 160.01,356.2 356.2,356.2l356.2 0c196.18,0 356.2,-160.01 356.2,-356.2l0 -356.2c0,-196.18 160.02,-356.2 356.2,-356.2l356.2 0c196.18,0 356.2,160.02 356.2,356.2l0 356.2c0,196.2 160.01,356.2 356.2,356.2z"/>
  <path class="fil2" d="M4630.61 3205.8l356.2 0c196.2,0 356.2,160.02 356.2,356.2l0 356.2c0,196.18 160.02,356.2 356.2,356.2l356.2 0c196.18,0 356.2,-160.02 356.2,-356.2l0 -356.2c0,-196.18 160.02,-356.2 356.2,-356.2l712.4 0 1068.6 0 0 -1068.6 -1068.6 0 -712.4 0c-196.18,0 -356.2,160.02 -356.2,356.2l0 356.2c0,196.2 -160.01,356.2 -356.2,356.2l-356.2 0c-196.18,0 -356.2,-160.01 -356.2,-356.2l0 -712.4 -1068.6 0 0 712.4c0,196.18 160.02,356.2 356.2,356.2z"/>
  <path class="fil3" d="M4630.61 1068.6l356.2 0c196.2,0 356.2,-160.02 356.2,-356.2l0 -356.2c0,-196.18 160.02,-356.2 356.2,-356.2l712.4 0 712.4 0c196.18,0 356.2,160.02 356.2,356.2l0 356.2c0,196.18 160.02,356.2 356.2,356.2l356.2 0c196.18,0 356.2,160.02 356.2,356.2l0 712.4 -1068.6 0 0 -712.4c0,-196.2 -160.01,-356.2 -356.2,-356.2l-712.4 0 -712.4 0c-196.18,0 -356.2,160.01 -356.2,356.2l0 712.4 -1068.6 0 0 -712.4c0,-196.18 160.02,-356.2 356.2,-356.2z"/>
  <path class="fil2" d="M5699.21 5343.01l712.4 0 1068.6 0 1068.6 0 0 -1068.6 -1068.6 0 -1068.6 0 -712.4 0c-196.18,0 -356.2,160.02 -356.2,356.2l0 356.2c0,196.18 -160.01,356.2 -356.2,356.2l-356.2 0c-196.18,0 -356.2,160.02 -356.2,356.2l0 712.4 1068.6 0 0 -712.4c0,-196.2 160.02,-356.2 356.2,-356.2z"/>
  <path class="fil1" d="M4986.81 7480.21l-356.2 0c-196.18,0 -356.2,-160.02 -356.2,-356.2l0 -712.4 1068.6 0 0 712.4c0,196.18 160.02,356.2 356.2,356.2l356.2 0c196.2,0 356.2,-160.02 356.2,-356.2l0 -356.2c0,-196.18 160.02,-356.2 356.2,-356.2l356.2 0c196.18,0 356.2,160.02 356.2,356.2l0 356.2c0,196.18 160.02,356.2 356.2,356.2l356.2 0c196.18,0 356.2,160.02 356.2,356.2l0 712.4 -1068.6 0 0 -712.4c0,-196.2 -160.01,-356.2 -356.2,-356.2l-356.2 0c-196.18,0 -356.2,160.01 -356.2,356.2l0 356.2c0,196.18 -160.02,356.2 -356.2,356.2l-356.2 0c-196.18,0 -356.2,-160.02 -356.2,-356.2l0 -356.2c0,-196.2 -160.01,-356.2 -356.2,-356.2z"/>
  <path class="fil3" d="M3918.21 5343.01l-356.2 0c-196.2,0 -356.2,-160.02 -356.2,-356.2l0 -356.2c0,-196.18 -160.02,-356.2 -356.2,-356.2l-356.2 0c-196.18,0 -356.2,160.02 -356.2,356.2l0 356.2c0,196.18 -160.02,356.2 -356.2,356.2l-712.4 0 -1068.6 0 0 1068.6 1068.6 0 712.4 0c196.18,0 356.2,-160.02 356.2,-356.2l0 -356.2c0,-196.2 160.01,-356.2 356.2,-356.2l356.2 0c196.18,0 356.2,160.01 356.2,356.2l0 712.4 1068.6 0 0 -712.4c0,-196.18 -160.02,-356.2 -356.2,-356.2z"/>
  <path class="fil0" d="M3918.21 7480.21l-356.2 0c-196.2,0 -356.2,160.02 -356.2,356.2l0 356.2c0,196.18 -160.02,356.2 -356.2,356.2l-712.4 0 -712.4 0c-196.18,0 -356.2,-160.02 -356.2,-356.2l0 -356.2c0,-196.18 -160.02,-356.2 -356.2,-356.2l-356.2 0c-196.18,0 -356.2,-160.02 -356.2,-356.2l0 -712.4 1068.6 0 0 712.4c0,196.2 160.01,356.2 356.2,356.2l712.4 0 712.4 0c196.18,0 356.2,-160.01 356.2,-356.2l0 -712.4 1068.6 0 0 712.4c0,196.18 -160.02,356.2 -356.2,356.2z"/>
  <path class="fil1" d="M11398.42 3205.8l-712.4 0 -1068.6 0 -1068.6 0 0 1068.6 1068.6 0 1068.6 0 712.4 0c196.18,0 356.2,-160.02 356.2,-356.2l0 -356.2c0,-196.18 160.01,-356.2 356.2,-356.2l356.2 0c196.18,0 356.2,-160.02 356.2,-356.2l0 -712.4 -1068.6 0 0 712.4c0,196.2 -160.02,356.2 -356.2,356.2z"/>
  <path class="fil0" d="M12110.82 1068.6l356.2 0c196.18,0 356.2,160.02 356.2,356.2l0 712.4 -1068.6 0 0 -712.4c0,-196.18 -160.02,-356.2 -356.2,-356.2l-356.2 0c-196.2,0 -356.2,160.02 -356.2,356.2l0 356.2c0,196.18 -160.02,356.2 -356.2,356.2l-356.2 0c-196.18,0 -356.2,-160.02 -356.2,-356.2l0 -356.2c0,-196.18 -160.02,-356.2 -356.2,-356.2l-356.2 0c-196.18,0 -356.2,-160.02 -356.2,-356.2l0 -712.4 1068.6 0 0 712.4c0,196.2 160.01,356.2 356.2,356.2l356.2 0c196.18,0 356.2,-160.01 356.2,-356.2l0 -356.2c0,-196.18 160.02,-356.2 356.2,-356.2l356.2 0c196.18,0 356.2,160.02 356.2,356.2l0 356.2c0,196.2 160.01,356.2 356.2,356.2z"/>
  <path class="fil3" d="M13179.42 3205.8l356.2 0c196.2,0 356.2,160.02 356.2,356.2l0 356.2c0,196.18 160.02,356.2 356.2,356.2l356.2 0c196.18,0 356.2,-160.02 356.2,-356.2l0 -356.2c0,-196.18 160.02,-356.2 356.2,-356.2l712.4 0 1068.6 0 0 -1068.6 -1068.6 0 -712.4 0c-196.18,0 -356.2,160.02 -356.2,356.2l0 356.2c0,196.2 -160.01,356.2 -356.2,356.2l-356.2 0c-196.18,0 -356.2,-160.01 -356.2,-356.2l0 -712.4 -1068.6 0 0 712.4c0,196.18 160.02,356.2 356.2,356.2z"/>
  <path class="fil2" d="M13179.42 1068.6l356.2 0c196.2,0 356.2,-160.02 356.2,-356.2l0 -356.2c0,-196.18 160.02,-356.2 356.2,-356.2l712.4 0 712.4 0c196.18,0 356.2,160.02 356.2,356.2l0 356.2c0,196.18 160.02,356.2 356.2,356.2l356.2 0c196.18,0 356.2,160.02 356.2,356.2l0 712.4 -1068.6 0 0 -712.4c0,-196.2 -160.01,-356.2 -356.2,-356.2l-712.4 0 -712.4 0c-196.18,0 -356.2,160.01 -356.2,356.2l0 712.4 -1068.6 0 0 -712.4c0,-196.18 160.02,-356.2 356.2,-356.2z"/>
  <path class="fil1" d="M14248.02 5343.01l712.4 0 1068.6 0 1068.6 0 0 -1068.6 -1068.6 0 -1068.6 0 -712.4 0c-196.18,0 -356.2,160.02 -356.2,356.2l0 356.2c0,196.18 -160.01,356.2 -356.2,356.2l-356.2 0c-196.18,0 -356.2,160.02 -356.2,356.2l0 712.4 1068.6 0 0 -712.4c0,-196.2 160.02,-356.2 356.2,-356.2z"/>
  <path class="fil2" d="M13535.62 7480.21l-356.2 0c-196.18,0 -356.2,-160.02 -356.2,-356.2l0 -712.4 1068.6 0 0 712.4c0,196.18 160.02,356.2 356.2,356.2l356.2 0c196.2,0 356.2,-160.02 356.2,-356.2l0 -356.2c0,-196.18 160.02,-356.2 356.2,-356.2l356.2 0c196.18,0 356.2,160.02 356.2,356.2l0 356.2c0,196.18 160.02,356.2 356.2,356.2l356.2 0c196.18,0 356.2,160.02 356.2,356.2l0 712.4 -1068.6 0 0 -712.4c0,-196.2 -160.01,-356.2 -356.2,-356.2l-356.2 0c-196.18,0 -356.2,160.01 -356.2,356.2l0 356.2c0,196.18 -160.02,356.2 -356.2,356.2l-356.2 0c-196.18,0 -356.2,-160.02 -356.2,-356.2l0 -356.2c0,-196.2 -160.01,-356.2 -356.2,-356.2z"/>
  <path class="fil0" d="M12467.02 5343.01l-356.2 0c-196.2,0 -356.2,-160.02 -356.2,-356.2l0 -356.2c0,-196.18 -160.02,-356.2 -356.2,-356.2l-356.2 0c-196.18,0 -356.2,160.02 -356.2,356.2l0 356.2c0,196.18 -160.02,356.2 -356.2,356.2l-712.4 0 -1068.6 0 0 1068.6 1068.6 0 712.4 0c196.18,0 356.2,-160.02 356.2,-356.2l0 -356.2c0,-196.2 160.01,-356.2 356.2,-356.2l356.2 0c196.18,0 356.2,160.01 356.2,356.2l0 712.4 1068.6 0 0 -712.4c0,-196.18 -160.02,-356.2 -356.2,-356.2z"/>
  <path class="fil3" d="M12467.02 7480.21l-356.2 0c-196.2,0 -356.2,160.02 -356.2,356.2l0 356.2c0,196.18 -160.02,356.2 -356.2,356.2l-712.4 0 -712.4 0c-196.18,0 -356.2,-160.02 -356.2,-356.2l0 -356.2c0,-196.18 -160.02,-356.2 -356.2,-356.2l-356.2 0c-196.18,0 -356.2,-160.02 -356.2,-356.2l0 -712.4 1068.6 0 0 712.4c0,196.2 160.01,356.2 356.2,356.2l712.4 0 712.4 0c196.18,0 356.2,-160.01 356.2,-356.2l0 -712.4 1068.6 0 0 712.4c0,196.18 -160.02,356.2 -356.2,356.2z"/>
  <path class="fil2" d="M2849.6 11754.62l-712.4 0 -1068.6 0 -1068.6 0 0 1068.6 1068.6 0 1068.6 0 712.4 0c196.18,0 356.2,-160.02 356.2,-356.2l0 -356.2c0,-196.18 160.01,-356.2 356.2,-356.2l356.2 0c196.18,0 356.2,-160.02 356.2,-356.2l0 -712.4 -1068.6 0 0 712.4c0,196.2 -160.02,356.2 -356.2,356.2z"/>
  <path class="fil3" d="M3562.01 9617.41l356.2 0c196.18,0 356.2,160.02 356.2,356.2l0 712.4 -1068.6 0 0 -712.4c0,-196.18 -160.02,-356.2 -356.2,-356.2l-356.2 0c-196.2,0 -356.2,160.02 -356.2,356.2l0 356.2c0,196.18 -160.02,356.2 -356.2,356.2l-356.2 0c-196.18,0 -356.2,-160.02 -356.2,-356.2l0 -356.2c0,-196.18 -160.02,-356.2 -356.2,-356.2l-356.2 0c-196.18,0 -356.2,-160.02 -356.2,-356.2l0 -712.4 1068.6 0 0 712.4c0,196.2 160.01,356.2 356.2,356.2l356.2 0c196.18,0 356.2,-160.01 356.2,-356.2l0 -356.2c0,-196.18 160.02,-356.2 356.2,-356.2l356.2 0c196.18,0 356.2,160.02 356.2,356.2l0 356.2c0,196.2 160.01,356.2 356.2,356.2z"/>
  <path class="fil1" d="M4630.61 11754.62l356.2 0c196.2,0 356.2,160.02 356.2,356.2l0 356.2c0,196.18 160.02,356.2 356.2,356.2l356.2 0c196.18,0 356.2,-160.02 356.2,-356.2l0 -356.2c0,-196.18 160.02,-356.2 356.2,-356.2l712.4 0 1068.6 0 0 -1068.6 -1068.6 0 -712.4 0c-196.18,0 -356.2,160.02 -356.2,356.2l0 356.2c0,196.2 -160.01,356.2 -356.2,356.2l-356.2 0c-196.18,0 -356.2,-160.01 -356.2,-356.2l0 -712.4 -1068.6 0 0 712.4c0,196.18 160.02,356.2 356.2,356.2z"/>
  <path class="fil0" d="M4630.61 9617.41l356.2 0c196.2,0 356.2,-160.02 356.2,-356.2l0 -356.2c0,-196.18 160.02,-356.2 356.2,-356.2l712.4 0 712.4 0c196.18,0 356.2,160.02 356.2,356.2l0 356.2c0,196.18 160.02,356.2 356.2,356.2l356.2 0c196.18,0 356.2,160.02 356.2,356.2l0 712.4 -1068.6 0 0 -712.4c0,-196.2 -160.01,-356.2 -356.2,-356.2l-712.4 0 -712.4 0c-196.18,0 -356.2,160.01 -356.2,356.2l0 712.4 -1068.6 0 0 -712.4c0,-196.18 160.02,-356.2 356.2,-356.2z"/>
  <path class="fil0" d="M5699.21 13891.82l712.4 0 1068.6 0 1068.6 0 0 -1068.6 -1068.6 0 -1068.6 0 -712.4 0c-196.18,0 -356.2,160.02 -356.2,356.2l0 356.2c0,196.18 -160.01,356.2 -356.2,356.2l-356.2 0c-196.18,0 -356.2,160.02 -356.2,356.2l0 712.4 1068.6 0 0 -712.4c0,-196.2 160.02,-356.2 356.2,-356.2z"/>
  <path class="fil2" d="M4986.81 16029.02l-356.2 0c-196.18,0 -356.2,-160.02 -356.2,-356.2l0 -712.4 1068.6 0 0 712.4c0,196.18 160.02,356.2 356.2,356.2l356.2 0c196.2,0 356.2,-160.02 356.2,-356.2l0 -356.2c0,-196.18 160.02,-356.2 356.2,-356.2l356.2 0c196.18,0 356.2,160.02 356.2,356.2l0 356.2c0,196.18 160.02,356.2 356.2,356.2l356.2 0c196.18,0 356.2,160.02 356.2,356.2l0 712.4 -1068.6 0 0 -712.4c0,-196.2 -160.01,-356.2 -356.2,-356.2l-356.2 0c-196.18,0 -356.2,160.01 -356.2,356.2l0 356.2c0,196.18 -160.02,356.2 -356.2,356.2l-356.2 0c-196.18,0 -356.2,-160.02 -356.2,-356.2l0 -356.2c0,-196.2 -160.01,-356.2 -356.2,-356.2z"/>
  <path class="fil3" d="M3918.21 13891.82l-356.2 0c-196.2,0 -356.2,-160.02 -356.2,-356.2l0 -356.2c0,-196.18 -160.02,-356.2 -356.2,-356.2l-356.2 0c-196.18,0 -356.2,160.02 -356.2,356.2l0 356.2c0,196.18 -160.02,356.2 -356.2,356.2l-712.4 0 -1068.6 0 0 1068.6 1068.6 0 712.4 0c196.18,0 356.2,-160.02 356.2,-356.2l0 -356.2c0,-196.2 160.01,-356.2 356.2,-356.2l356.2 0c196.18,0 356.2,160.01 356.2,356.2l0 712.4 1068.6 0 0 -712.4c0,-196.18 -160.02,-356.2 -356.2,-356.2z"/>
  <path class="fil1" d="M3918.21 16029.02l-356.2 0c-196.2,0 -356.2,160.02 -356.2,356.2l0 356.2c0,196.18 -160.02,356.2 -356.2,356.2l-712.4 0 -712.4 0c-196.18,0 -356.2,-160.02 -356.2,-356.2l0 -356.2c0,-196.18 -160.02,-356.2 -356.2,-356.2l-356.2 0c-196.18,0 -356.2,-160.02 -356.2,-356.2l0 -712.4 1068.6 0 0 712.4c0,196.2 160.01,356.2 356.2,356.2l712.4 0 712.4 0c196.18,0 356.2,-160.01 356.2,-356.2l0 -712.4 1068.6 0 0 712.4c0,196.18 -160.02,356.2 -356.2,356.2z"/>
  <path class="fil3" d="M11398.42 11754.62l-712.4 0 -1068.6 0 -1068.6 0 0 1068.6 1068.6 0 1068.6 0 712.4 0c196.18,0 356.2,-160.02 356.2,-356.2l0 -356.2c0,-196.18 160.01,-356.2 356.2,-356.2l356.2 0c196.18,0 356.2,-160.02 356.2,-356.2l0 -712.4 -1068.6 0 0 712.4c0,196.2 -160.02,356.2 -356.2,356.2z"/>
  <path class="fil2" d="M12110.82 9617.41l356.2 0c196.18,0 356.2,160.02 356.2,356.2l0 712.4 -1068.6 0 0 -712.4c0,-196.18 -160.02,-356.2 -356.2,-356.2l-356.2 0c-196.2,0 -356.2,160.02 -356.2,356.2l0 356.2c0,196.18 -160.02,356.2 -356.2,356.2l-356.2 0c-196.18,0 -356.2,-160.02 -356.2,-356.2l0 -356.2c0,-196.18 -160.02,-356.2 -356.2,-356.2l-356.2 0c-196.18,0 -356.2,-160.02 -356.2,-356.2l0 -712.4 1068.6 0 0 712.4c0,196.2 160.01,356.2 356.2,356.2l356.2 0c196.18,0 356.2,-160.01 356.2,-356.2l0 -356.2c0,-196.18 160.02,-356.2 356.2,-356.2l356.2 0c196.18,0 356.2,160.02 356.2,356.2l0 356.2c0,196.2 160.01,356.2 356.2,356.2z"/>
  <path class="fil1" d="M13179.42 11754.62l356.2 0c196.2,0 356.2,160.02 356.2,356.2l0 356.2c0,196.18 160.02,356.2 356.2,356.2l356.2 0c196.18,0 356.2,-160.02 356.2,-356.2l0 -356.2c0,-196.18 160.02,-356.2 356.2,-356.2l712.4 0 1068.6 0 0 -1068.6 -1068.6 0 -712.4 0c-196.18,0 -356.2,160.02 -356.2,356.2l0 356.2c0,196.2 -160.01,356.2 -356.2,356.2l-356.2 0c-196.18,0 -356.2,-160.01 -356.2,-356.2l0 -712.4 -1068.6 0 0 712.4c0,196.18 160.02,356.2 356.2,356.2z"/>
  <path class="fil0" d="M13179.42 9617.41l356.2 0c196.2,0 356.2,-160.02 356.2,-356.2l0 -356.2c0,-196.18 160.02,-356.2 356.2,-356.2l712.4 0 712.4 0c196.18,0 356.2,160.02 356.2,356.2l0 356.2c0,196.18 160.02,356.2 356.2,356.2l356.2 0c196.18,0 356.2,160.02 356.2,356.2l0 712.4 -1068.6 0 0 -712.4c0,-196.2 -160.01,-356.2 -356.2,-356.2l-712.4 0 -712.4 0c-196.18,0 -356.2,160.01 -356.2,356.2l0 712.4 -1068.6 0 0 -712.4c0,-196.18 160.02,-356.2 356.2,-356.2z"/>
  <path class="fil1" d="M14248.02 13891.82l712.4 0 1068.6 0 1068.6 0 0 -1068.6 -1068.6 0 -1068.6 0 -712.4 0c-196.18,0 -356.2,160.02 -356.2,356.2l0 356.2c0,196.18 -160.01,356.2 -356.2,356.2l-356.2 0c-196.18,0 -356.2,160.02 -356.2,356.2l0 712.4 1068.6 0 0 -712.4c0,-196.2 160.02,-356.2 356.2,-356.2z"/>
  <path class="fil3" d="M13535.62 16029.02l-356.2 0c-196.18,0 -356.2,-160.02 -356.2,-356.2l0 -712.4 1068.6 0 0 712.4c0,196.18 160.02,356.2 356.2,356.2l356.2 0c196.2,0 356.2,-160.02 356.2,-356.2l0 -356.2c0,-196.18 160.02,-356.2 356.2,-356.2l356.2 0c196.18,0 356.2,160.02 356.2,356.2l0 356.2c0,196.18 160.02,356.2 356.2,356.2l356.2 0c196.18,0 356.2,160.02 356.2,356.2l0 712.4 -1068.6 0 0 -712.4c0,-196.2 -160.01,-356.2 -356.2,-356.2l-356.2 0c-196.18,0 -356.2,160.01 -356.2,356.2l0 356.2c0,196.18 -160.02,356.2 -356.2,356.2l-356.2 0c-196.18,0 -356.2,-160.02 -356.2,-356.2l0 -356.2c0,-196.2 -160.01,-356.2 -356.2,-356.2z"/>
  <path class="fil2" d="M12467.02 13891.82l-356.2 0c-196.2,0 -356.2,-160.02 -356.2,-356.2l0 -356.2c0,-196.18 -160.02,-356.2 -356.2,-356.2l-356.2 0c-196.18,0 -356.2,160.02 -356.2,356.2l0 356.2c0,196.18 -160.02,356.2 -356.2,356.2l-712.4 0 -1068.6 0 0 1068.6 1068.6 0 712.4 0c196.18,0 356.2,-160.02 356.2,-356.2l0 -356.2c0,-196.2 160.01,-356.2 356.2,-356.2l356.2 0c196.18,0 356.2,160.01 356.2,356.2l0 712.4 1068.6 0 0 -712.4c0,-196.18 -160.02,-356.2 -356.2,-356.2z"/>
  <path class="fil0" d="M12467.02 16029.02l-356.2 0c-196.2,0 -356.2,160.02 -356.2,356.2l0 356.2c0,196.18 -160.02,356.2 -356.2,356.2l-712.4 0 -712.4 0c-196.18,0 -356.2,-160.02 -356.2,-356.2l0 -356.2c0,-196.18 -160.02,-356.2 -356.2,-356.2l-356.2 0c-196.18,0 -356.2,-160.02 -356.2,-356.2l0 -712.4 1068.6 0 0 712.4c0,196.2 160.01,356.2 356.2,356.2l712.4 0 712.4 0c196.18,0 356.2,-160.01 356.2,-356.2l0 -712.4 1068.6 0 0 712.4c0,196.18 -160.02,356.2 -356.2,356.2z"/>
 </g>
</svg>
