<?xml version="1.0" encoding="UTF-8"?>
<!DOCTYPE svg PUBLIC "-//W3C//DTD SVG 1.1//EN" "http://www.w3.org/Graphics/SVG/1.1/DTD/svg11.dtd">
<!-- Creator: CorelDRAW 2020 (64-Bit) -->
<svg xmlns="http://www.w3.org/2000/svg" xml:space="preserve" width="96mm" height="95.9998mm" version="1.1" style="shape-rendering:geometricPrecision; text-rendering:geometricPrecision; image-rendering:optimizeQuality; fill-rule:evenodd; clip-rule:evenodd"
viewBox="0 0 5083.85 5083.84"
 xmlns:xlink="http://www.w3.org/1999/xlink"
 xmlns:xodm="http://www.corel.com/coreldraw/odm/2003">
 <defs>
  <style type="text/css">
   <![CDATA[
    .fil1 {fill:#5374CF}
    .fil0 {fill:#DAD9D7}
   ]]>
  </style>
 </defs>
 <g id="Plan_x0020_1">
  <metadata id="CorelCorpID_0Corel-Layer"/>
  <path class="fil0" d="M1694.62 3812.88l847.31 0 1270.96 0 1270.96 0 0 1270.96 -1270.96 0 -1270.96 0 -847.31 0c-233.33,0 -423.65,-190.31 -423.65,-423.64l0 -423.65c0,-233.34 -190.31,-423.66 -423.65,-423.66l-423.65 0c-233.33,0 -423.65,-190.32 -423.65,-423.65l0 -847.31 1270.96 0 0 847.31c0,233.35 190.32,423.65 423.65,423.65z"/>
  <path class="fil1" d="M2965.58 1270.96l847.31 0 1270.96 0 0 -1270.96 -1270.96 0 -847.31 0c-233.33,0 -423.65,190.31 -423.65,423.64l0 423.65c0,233.34 -190.31,423.66 -423.65,423.66l-423.65 0c-233.33,0 -423.65,190.32 -423.65,423.65l0 847.31 1270.96 0 0 -847.31c0,-233.35 190.32,-423.65 423.65,-423.65z"/>
 </g>
</svg>
