<?xml version="1.0" encoding="UTF-8"?>
<!DOCTYPE svg PUBLIC "-//W3C//DTD SVG 1.1//EN" "http://www.w3.org/Graphics/SVG/1.1/DTD/svg11.dtd">
<!-- Creator: CorelDRAW 2020 (64-Bit) -->
<svg xmlns="http://www.w3.org/2000/svg" xml:space="preserve" width="96.0013mm" height="96mm" version="1.1" style="shape-rendering:geometricPrecision; text-rendering:geometricPrecision; image-rendering:optimizeQuality; fill-rule:evenodd; clip-rule:evenodd"
viewBox="0 0 2468.33 2468.3"
 xmlns:xlink="http://www.w3.org/1999/xlink"
 xmlns:xodm="http://www.corel.com/coreldraw/odm/2003">
 <defs>
  <style type="text/css">
   <![CDATA[
    .fil0 {fill:white}
    .fil1 {fill:#F5CFB1}
   ]]>
  </style>
 </defs>
 <g id="Plan_x0020_1">
  <metadata id="CorelCorpID_0Corel-Layer"/>
  <path class="fil0" d="M1851.24 1645.54l0 -0.02 0 -411.37 -617.09 0 0 411.4c0,113.58 -92.1,205.68 -205.69,205.68l-1028.46 0 0 617.06 1028.46 0 0 0c113.3,0 205.69,-92.4 205.69,-205.69l0 -58.17 0 -147.51c0,-113.58 92.1,-205.68 205.7,-205.68l205.69 0c113.3,0 205.7,-92.4 205.7,-205.69z"/>
  <path class="fil1" d="M2468.33 822.76l0 0.02 0 411.37 -617.09 0 0 -411.4c0,-113.58 -92.1,-205.68 -205.69,-205.68l-1645.55 0 0 -617.06 1645.55 0 0 0c113.3,0 205.69,92.4 205.69,205.69l0 58.17 0 147.51c0,113.58 92.1,205.68 205.7,205.68l205.69 0c113.3,0 205.7,92.4 205.7,205.69z"/>
 </g>
</svg>
