<?xml version="1.0" encoding="UTF-8"?>
<svg enable-background="new 0 0 306.1 408.2" version="1.1" viewBox="0 0 306.1 408.2" xml:space="preserve" xmlns="http://www.w3.org/2000/svg">
<style type="text/css">
	.st0{fill-rule:evenodd;clip-rule:evenodd;fill:#56C271;}
</style>
<g transform="translate(-752.05 2821.4)">
	<path class="st0" d="m752-2685.3v68h102v-68c0-18.8 15.2-34 34-34h170.1v-102h-170c-18.8 0-34 15.2-34 34v34c0 18.8-15.2 34-34 34h-34c-18.8 0-34 15.2-34.1 34z"/>
	<path class="st0" d="m854.1-2549.3v-68h102v68c0 18.8 15.2 34 34 34h68v102h-68c-18.8 0-34-15.2-34-34v-34c0-18.8-15.2-34-34-34h-34c-18.8 0-34-15.2-34-34z"/>
</g>
</svg>
