<svg xmlns="http://www.w3.org/2000/svg" width="408.189" height="272.126" viewBox="0 0 408.189 272.126">
  <path id="Path_29" data-name="Path 29" d="M1058.187-1792.169a22.722,22.722,0,0,0-22.677-22.678h-22.677a22.721,22.721,0,0,0-22.677,22.678v22.677a22.722,22.722,0,0,1-22.677,22.677H944.8a22.722,22.722,0,0,1-22.678-22.677v-22.677a22.722,22.722,0,0,0-22.677-22.678H876.77a22.721,22.721,0,0,1-22.677-22.677v-45.354h68.031v45.354a22.72,22.72,0,0,0,22.678,22.677h22.677a22.721,22.721,0,0,0,22.677-22.677V-1860.2a22.721,22.721,0,0,1,22.677-22.677h22.677a22.721,22.721,0,0,1,22.677,22.677v68.032ZM876.77-1950.91h22.677a22.722,22.722,0,0,1,22.677,22.678v45.354H854.093v-45.354a22.722,22.722,0,0,0-22.677-22.678H808.739a22.722,22.722,0,0,0-22.678,22.678v22.677a22.721,22.721,0,0,1-22.677,22.677H740.707a22.721,22.721,0,0,1-22.677-22.677v-22.677a22.722,22.722,0,0,0-22.677-22.678H672.676A22.722,22.722,0,0,1,650-1973.587v-45.354H718.03v45.354a22.72,22.72,0,0,0,22.677,22.677h22.677a22.72,22.72,0,0,0,22.677-22.677v-22.677a22.722,22.722,0,0,1,22.678-22.677h22.677a22.722,22.722,0,0,1,22.677,22.677v22.677A22.72,22.72,0,0,0,876.77-1950.91Z" transform="translate(-649.998 2018.941)" fill="#d3d1c6" fill-rule="evenodd"/>
</svg>
