<?xml version="1.0" encoding="UTF-8"?>
<!DOCTYPE svg PUBLIC "-//W3C//DTD SVG 1.1//EN" "http://www.w3.org/Graphics/SVG/1.1/DTD/svg11.dtd">
<!-- Creator: CorelDRAW 2020 (64-Bit) -->
<svg xmlns="http://www.w3.org/2000/svg" xml:space="preserve" width="104mm" height="96mm" version="1.1" style="shape-rendering:geometricPrecision; text-rendering:geometricPrecision; image-rendering:optimizeQuality; fill-rule:evenodd; clip-rule:evenodd"
viewBox="0 0 2896.78 2673.95"
 xmlns:xlink="http://www.w3.org/1999/xlink"
 xmlns:xodm="http://www.corel.com/coreldraw/odm/2003">
 <defs>
  <style type="text/css">
   <![CDATA[
    .fil1 {fill:#55C171}
    .fil0 {fill:#4D22A8}
   ]]>
  </style>
 </defs>
 <g id="Plan_x0020_1">
  <metadata id="CorelCorpID_0Corel-Layer"/>
  <path class="fil0" d="M668.49 2005.46c122.73,0 222.83,-100.1 222.83,-222.82l0 -222.83c0,-122.73 100.1,-222.83 222.83,-222.83l222.83 0c122.73,0 222.83,-100.1 222.83,-222.83l0 -445.66 -668.49 0 0 445.66c0,122.73 -100.09,222.83 -222.83,222.83l-668.49 0 0 668.49 668.49 0 0 -0z"/>
  <path class="fil1" d="M2228.29 2451.12l0 -222.83c0,-122.73 100.1,-222.83 222.83,-222.83l222.83 0c122.73,0 222.82,-100.1 222.82,-222.83l0 -445.66 0 -445.66c0,-122.73 -100.1,-222.83 -222.82,-222.83l-222.83 0c-122.73,0 -222.83,-100.1 -222.83,-222.83l0 -222.83c0,-122.73 -100.1,-222.83 -222.83,-222.83l-445.66 0 0 668.49 445.66 0c122.73,0 222.83,100.09 222.83,222.83l0 445.66 0 445.66c0,122.72 -100.1,222.83 -222.83,222.83l-1114.15 -0 0 668.49 1114.15 0c122.73,0 222.83,-100.1 222.83,-222.83z"/>
 </g>
</svg>
