<?xml version="1.0" encoding="utf-8"?>
<!-- Generator: Adobe Illustrator 24.1.1, SVG Export Plug-In . SVG Version: 6.00 Build 0)  -->
<svg version="1.1" id="Calque_1" xmlns:xodm="http://www.corel.com/coreldraw/odm/2003"
	 xmlns="http://www.w3.org/2000/svg" xmlns:xlink="http://www.w3.org/1999/xlink" x="0px" y="0px" viewBox="0 0 227.1 22.8"
	 style="enable-background:new 0 0 227.1 22.8;" xml:space="preserve">
<style type="text/css">
	.st0{fill-rule:evenodd;clip-rule:evenodd;}
</style>
<g id="Plan_x0020_1">
	<path d="M148.1,3.7c0,1.2,0.7,1.9,1.5,2.5l0.9,0.7c0.6,0.4,1.1,0.9,1.1,1.6c0,0.7-0.5,1.2-1.2,1.2c-0.7,0-1.2-0.5-1.2-1.4V7.6h-1.2
		v0.7c0,1.5,1.1,2.4,2.4,2.4c1.3,0,2.4-0.8,2.4-2.4c0-1.2-0.7-1.8-1.5-2.4l-1-0.7c-0.6-0.4-1.1-0.8-1.1-1.5c0-0.7,0.4-1.1,1.1-1.1
		c0.7,0,1.1,0.4,1.1,1.3v0.5h1.2V3.9c0-1.6-1-2.4-2.3-2.4C149.1,1.5,148.1,2.1,148.1,3.7L148.1,3.7z M156.8,10.7c1.7,0,3-1.3,3-3.1
		s-1.3-3.1-3-3.1c-1.7,0-3,1.3-3,3.1S155.1,10.7,156.8,10.7z M156.8,9.6c-1,0-1.8-0.8-1.8-2s0.8-2,1.8-2c1,0,1.8,0.8,1.8,2
		S157.9,9.6,156.8,9.6z M162.8,3.7c0-0.8,0.4-1.1,1.1-1.1c0.3,0,0.5,0,0.7,0.1V1.6c-0.2-0.1-0.5-0.1-0.8-0.1c-1.3,0-2.2,0.8-2.2,2.2
		v0.9h-1v1.1h1v4.9h1.2V5.6h2.5v3c0,1.6,0.8,2.1,2,2.1c0.3,0,0.7-0.1,0.9-0.1V9.5c-0.2,0.1-0.4,0.1-0.7,0.1c-0.7,0-1-0.3-1-1.1V5.6
		h1.7V4.6h-1.7V2.9h-1.2v1.7h-2.5L162.8,3.7L162.8,3.7z M177.8,4.6h-1.2l-1.2,5l-1.3-5h-1.5l-1.3,5l-1.2-5H169l1.6,6h1.5l1.3-5
		l1.3,5h1.5L177.8,4.6L177.8,4.6z M182.5,10.6h1.2V6.4c0-1.4-1.2-1.9-2.5-1.9c-1.3,0-2.6,0.6-2.6,2.1h1.2c0-0.8,0.5-1.2,1.3-1.2
		c0.7,0,1.3,0.3,1.3,0.9c0,1.4-4,0.1-4,2.7c0,1.2,1,1.7,2,1.7c0.9,0,1.6-0.3,2-1.1L182.5,10.6L182.5,10.6z M179.7,8.9
		c0-1,1.8-0.8,2.8-1.2v0.4c0,1-0.9,1.6-1.8,1.6C180.1,9.7,179.7,9.4,179.7,8.9z M186.6,7.6c0-1.2,0.7-1.9,1.8-1.9
		c0.2,0,0.5,0,0.6,0.1V4.5c-0.1,0-0.2,0-0.4,0c-0.9,0-1.6,0.4-2.1,1.2V4.6h-1.2v6h1.2V7.6L186.6,7.6z M195.7,7.6
		c0-1.8-1.2-3.1-3-3.1s-3,1.3-3,3.1s1.2,3.1,3,3.1c1.4,0,2.4-0.7,2.8-1.9h-1.3c-0.2,0.5-0.7,0.9-1.5,0.9c-1,0-1.7-0.6-1.8-1.7h4.7
		C195.7,7.9,195.7,7.7,195.7,7.6L195.7,7.6z M192.7,5.5c1,0,1.6,0.6,1.8,1.6H191C191.1,6.1,191.8,5.5,192.7,5.5L192.7,5.5z
		 M149.5,22.7v-9h-1.2v9H149.5z M152.5,19.4c0-1.2,0.6-1.8,1.5-1.8c0.9,0,1.5,0.6,1.5,1.8v3.3h1.2v-3.5c0-1.8-1-2.6-2.3-2.6
		c-0.8,0-1.5,0.4-1.8,1.1v-0.9h-1.2v6h1.2L152.5,19.4L152.5,19.4z M159.5,19.4c0-1.2,0.6-1.8,1.5-1.8c0.9,0,1.5,0.6,1.5,1.8v3.3h1.2
		v-3.5c0-1.8-1-2.6-2.3-2.6c-0.8,0-1.5,0.4-1.8,1.1v-0.9h-1.2v6h1.2L159.5,19.4L159.5,19.4z M167.9,22.8c1.7,0,3-1.3,3-3.1
		c0-1.8-1.3-3.1-3-3.1c-1.7,0-3,1.3-3,3.1C164.9,21.5,166.2,22.8,167.9,22.8z M167.9,21.7c-1,0-1.8-0.8-1.8-2c0-1.2,0.8-2,1.8-2
		c1,0,1.8,0.8,1.8,2C169.7,20.9,168.9,21.7,167.9,21.7z M177.3,16.7H176l-1.6,5l-1.6-5h-1.2l2,6h1.7L177.3,16.7L177.3,16.7z
		 M182,22.7h1.2v-4.2c0-1.4-1.2-1.9-2.5-1.9c-1.3,0-2.6,0.6-2.6,2.1h1.2c0-0.8,0.5-1.2,1.3-1.2c0.7,0,1.3,0.3,1.3,0.9
		c0,1.4-4,0.1-4,2.7c0,1.2,1,1.7,2,1.7c0.9,0,1.6-0.3,2-1.1L182,22.7L182,22.7z M179.1,21c0-1,1.8-0.8,2.8-1.2v0.4
		c0,1-0.9,1.6-1.8,1.6C179.6,21.8,179.1,21.5,179.1,21z M186.3,20.6v-2.9h1.7v-1.1h-1.7v-1.8h-1.2v1.8h-1v1.1h1v3
		c0,1.6,0.8,2.1,2,2.1c0.3,0,0.7-0.1,0.9-0.1v-1.1c-0.2,0.1-0.4,0.1-0.7,0.1C186.7,21.7,186.3,21.4,186.3,20.6z M190.1,15.4
		c0.5,0,0.8-0.3,0.8-0.8c0-0.5-0.3-0.8-0.8-0.8c-0.5,0-0.8,0.3-0.8,0.8C189.3,15,189.6,15.4,190.1,15.4z M190.7,22.7v-6h-1.2v6
		H190.7z M195.1,22.8c1.7,0,3-1.3,3-3.1c0-1.8-1.3-3.1-3-3.1s-3,1.3-3,3.1C192,21.5,193.3,22.8,195.1,22.8z M195.1,21.7
		c-1,0-1.8-0.8-1.8-2c0-1.2,0.8-2,1.8-2c1,0,1.8,0.8,1.8,2C196.9,20.9,196.1,21.7,195.1,21.7z M200.6,19.4c0-1.2,0.6-1.8,1.5-1.8
		c0.9,0,1.5,0.6,1.5,1.8v3.3h1.2v-3.5c0-1.8-1-2.6-2.3-2.6c-0.8,0-1.5,0.4-1.8,1.1v-0.9h-1.2v6h1.2L200.6,19.4L200.6,19.4z
		 M213.3,21.6h-2.9v-7.9h-1.2v9h4.1L213.3,21.6L213.3,21.6z M218.2,22.7h1.2v-4.2c0-1.4-1.2-1.9-2.5-1.9c-1.3,0-2.6,0.6-2.6,2.1h1.2
		c0-0.8,0.5-1.2,1.3-1.2c0.7,0,1.3,0.3,1.3,0.9c0,1.4-4,0.1-4,2.7c0,1.2,1,1.7,2,1.7c0.9,0,1.6-0.3,2-1.1L218.2,22.7L218.2,22.7z
		 M215.3,21c0-1,1.8-0.8,2.8-1.2v0.4c0,1-0.9,1.6-1.8,1.6C215.8,21.8,215.3,21.5,215.3,21z M227.1,19.7c0-1.8-1.2-3.1-2.9-3.1
		c-0.8,0-1.5,0.4-2,1v-3.9H221v9h1.2v-0.9c0.5,0.6,1.2,1,2,1C225.8,22.8,227.1,21.5,227.1,19.7z M224,17.7c1,0,1.8,0.8,1.8,2
		c0,1.2-0.8,2-1.8,2c-1,0-1.8-0.8-1.8-2C222.2,18.5,223,17.7,224,17.7z"/>
	<path class="st0" d="M16.1,0L16.1,0h6.6v5.7h-6.6c-1,0-1.9,0.8-1.9,1.9v15.1H8.5V7.6l0,0c0-1,0.8-1.9,1.9-1.9h0.5h1.4
		c1,0,1.9-0.8,1.9-1.9V1.9C14.2,0.8,15,0,16.1,0z"/>
	<polygon class="st0" points="8.5,5.7 0,5.7 0,0 8.5,0 	"/>
	<path class="st0" d="M53.9,15.1V0h-5.7v17H52C53,17,53.9,16.2,53.9,15.1L53.9,15.1z"/>
	<path class="st0" d="M33.1,22.7L33.1,22.7h3.8V17h-3.8c-1,0-1.9-0.8-1.9-1.9V0h-5.7v15.1l0,0c0,1,0.8,1.9,1.9,1.9h0.5h1.4
		c1,0,1.9,0.8,1.9,1.9v1.9C31.2,21.8,32,22.7,33.1,22.7z"/>
	<path class="st0" d="M44.4,22.7L44.4,22.7h3.8V17h-3.8c-1,0-1.9-0.8-1.9-1.9V0h-5.7v15.1l0,0c0,1,0.8,1.9,1.9,1.9h0.5h1.4
		c1,0,1.9,0.8,1.9,1.9v1.9C42.5,21.8,43.4,22.7,44.4,22.7z"/>
	<path class="st0" d="M104.9,7.6v15.1h-5.7v-17h3.8C104,5.7,104.9,6.5,104.9,7.6z"/>
	<path class="st0" d="M89.8,0L89.8,0h7.6c1,0,1.9,0.8,1.9,1.9v3.8h-9.4c-1,0-1.9,0.8-1.9,1.9v15.1h-5.7V7.6l0,0c0-1,0.8-1.9,1.9-1.9
		h0.5H86c1,0,1.9-0.8,1.9-1.9V1.9C87.9,0.8,88.7,0,89.8,0z"/>
	<rect x="86.2" y="13.2" class="st0" width="15.8" height="3.8"/>
	<path class="st0" d="M64.3,22.7L64.3,22.7h15.1V17H64.3c-1,0-1.9-0.8-1.9-1.9v-1.9V5.7h-3.8c-1,0-1.9,0.8-1.9,1.9v5.7v1.9l0,0
		c0,1,0.8,1.9,1.9,1.9h0.5h1.4c1,0,1.9,0.8,1.9,1.9v1.9C62.4,21.8,63.2,22.7,64.3,22.7L64.3,22.7z"/>
	<path class="st0" d="M79.4,0H64.3c-1,0-1.9,0.8-1.9,1.9v3.8h17C79.4,5.7,79.4,0,79.4,0z"/>
	<polygon class="st0" points="76.5,13.2 60.4,13.2 60.4,9.4 76.5,9.4 	"/>
	<path class="st0" d="M115.3,22.7L115.3,22.7h10.4c1,0,1.9-0.8,1.9-1.9V17h-12.3c-1,0-1.9-0.8-1.9-1.9v-1.9V5.7h-3.8
		c-1,0-1.9,0.8-1.9,1.9v5.7v1.9l0,0c0,1,0.8,1.9,1.9,1.9h0.5h1.4c1,0,1.9,0.8,1.9,1.9v1.9C113.4,21.8,114.2,22.7,115.3,22.7
		L115.3,22.7z"/>
	<path class="st0" d="M130.4,0h-15.1c-1,0-1.9,0.8-1.9,1.9v3.8h17L130.4,0L130.4,0z"/>
	<path class="st0" d="M127.6,13.2h-8.5V9.4h12.3c1,0,1.9,0.9,1.9,1.9v1.9V17h-5.7C127.6,17,127.6,13.2,127.6,13.2z"/>
</g>
</svg>
