<?xml version="1.0" encoding="UTF-8"?>
<!DOCTYPE svg PUBLIC "-//W3C//DTD SVG 1.1//EN" "http://www.w3.org/Graphics/SVG/1.1/DTD/svg11.dtd">
<svg xmlns="http://www.w3.org/2000/svg" xml:space="preserve" width="29.375mm" height="5mm" version="1.1" style="shape-rendering:geometricPrecision; text-rendering:geometricPrecision; image-rendering:optimizeQuality; fill-rule:evenodd; clip-rule:evenodd"
viewBox="0 0 339.01 57.7"
 xmlns:xlink="http://www.w3.org/1999/xlink"
 xmlns:xodm="http://www.corel.com/coreldraw/odm/2003">
 <defs>
  <style type="text/css">
   <![CDATA[
    .fil0 {fill:white}
   ]]>
  </style>
 </defs>
 <g id="Plan_x0020_1">
  <path class="fil0" d="M40.87 0l0 0 16.83 0 0 14.43 -16.83 0c-2.65,0 -4.81,2.15 -4.81,4.81l0 38.47 -14.43 0 0 -38.47 0 0c0,-2.65 2.16,-4.81 4.81,-4.81l1.36 0 3.45 0c2.66,0 4.81,-2.15 4.81,-4.81l0 -4.81c0,-2.65 2.16,-4.81 4.81,-4.81zm283.71 33.66l-21.64 0 0 -9.62 31.26 0c2.65,0 4.81,2.17 4.81,4.81l0 4.81 0 9.62 -14.43 0 -31.26 0c-2.66,0 -4.81,-2.15 -4.81,-4.81l0 -4.81 0 -19.24 43.28 0 0 -14.43 -38.47 0c-2.65,0 -4.81,2.16 -4.81,4.81l0 9.62 -9.62 0c-2.65,0 -4.81,2.16 -4.81,4.81l0 14.43 0 4.81 0 0c0,2.65 2.16,4.81 4.81,4.81l1.36 0 3.45 0c2.65,0 4.81,2.15 4.81,4.81l0 4.81c0,2.65 2.16,4.81 4.81,4.81l0 0 26.45 0c2.65,0 4.81,-2.16 4.81,-4.81l0 -9.62 0 -9.62zm-129.83 0l-36.07 0 0 4.81c0,2.66 2.15,4.81 4.81,4.81l38.47 0 0 14.43 -38.47 0 -0 0c-2.65,0 -4.81,-2.16 -4.81,-4.81l0 -4.81c0,-2.65 -2.15,-4.81 -4.81,-4.81l-3.45 0 -1.36 0c-2.65,0 -4.81,-2.16 -4.81,-4.81l0 0 0 -4.81 0 -14.43c0,-2.65 2.16,-4.81 4.81,-4.81l9.62 0 0 -9.62c0,-2.65 2.16,-4.81 4.81,-4.81l38.47 0 0 14.43 -43.28 0 0 9.62 36.07 0 0 9.62zm57.7 -0l-28.85 0 0 -14.42c0,-2.66 2.15,-4.81 4.81,-4.81l24.04 0 0 19.23zm-28.85 9.62l28.85 0 0 14.43 14.43 0 0 -38.47c0,-2.65 -2.16,-4.81 -4.81,-4.81l-9.62 0 0 -9.62c0,-2.65 -2.16,-4.81 -4.81,-4.81l-19.23 0 -0 0c-2.65,0 -4.81,2.16 -4.81,4.81l0 4.81c0,2.66 -2.15,4.81 -4.81,4.81l-3.45 0 -1.36 0c-2.65,0 -4.81,2.16 -4.81,4.81l0 0 0 38.47 14.42 0 0 -14.43zm-110.6 14.43l0 0 9.62 0 0 -14.43 9.62 0c2.65,0 4.81,-2.16 4.81,-4.81l0 -38.47 -14.43 0 -0 43.28 -9.62 0c-2.66,0 -4.81,-2.15 -4.81,-4.81l0 -38.47 -14.43 0 0 38.47 0 0c0,2.65 2.16,4.81 4.81,4.81l1.36 0 3.45 0c2.66,0 4.81,2.15 4.81,4.81l0 4.81c0,2.65 2.16,4.81 4.81,4.81zm-28.85 0l0 0 9.62 0 0 -14.43 -9.62 0c-2.66,0 -4.81,-2.15 -4.81,-4.81l0 -38.47 -14.42 0 0 38.47 0 0c0,2.65 2.16,4.81 4.81,4.81l1.36 0 3.45 0c2.66,0 4.81,2.15 4.81,4.81l0 4.81c0,2.65 2.16,4.81 4.81,4.81zm-62.51 -43.28l-21.64 0 0 -14.43 21.64 0 0 14.43z"/>
 </g>
</svg>
