<?xml version="1.0" encoding="UTF-8"?>
<!DOCTYPE svg PUBLIC "-//W3C//DTD SVG 1.1//EN" "http://www.w3.org/Graphics/SVG/1.1/DTD/svg11.dtd">
<!-- Creator: CorelDRAW 2020 (64-Bit) -->
<svg xmlns="http://www.w3.org/2000/svg" xml:space="preserve" width="95.9997mm" height="120mm" version="1.1" style="shape-rendering:geometricPrecision; text-rendering:geometricPrecision; image-rendering:optimizeQuality; fill-rule:evenodd; clip-rule:evenodd"
viewBox="0 0 10340.21 12925.31"
 xmlns:xlink="http://www.w3.org/1999/xlink"
 xmlns:xodm="http://www.corel.com/coreldraw/odm/2003">
 <defs>
  <style type="text/css">
   <![CDATA[
    .fil1 {fill:#5374CF}
    .fil0 {fill:#3A4458}
   ]]>
  </style>
 </defs>
 <g id="Plan_x0020_1">
  <metadata id="CorelCorpID_0Corel-Layer"/>
  <g id="_2500196485888">
   <path class="fil0" d="M7755.16 1723.37l0 -861.69c0,-474.58 -387.09,-861.69 -861.69,-861.69l-1723.37 0 0 2585.06 1723.37 0c474.6,0 861.69,387.1 861.69,861.69l0 861.69c0,474.62 -387.09,861.69 -861.69,861.69l-861.69 0c-474.58,0 -861.69,387.1 -861.69,861.69l0 861.69c0,474.58 387.1,861.69 861.69,861.69l861.69 0c474.6,0 861.69,387.1 861.69,861.69l0 861.69c0,474.58 387.1,861.69 861.7,861.69l1723.35 0 0 -2585.06 -1723.35 0c-474.63,0 -861.7,-387.07 -861.7,-861.69l0 -861.69c0,-474.58 387.07,-861.69 861.7,-861.69l861.69 0c474.58,0 861.67,-387.1 861.67,-861.69l0 -861.69c0,-474.58 -387.08,-861.69 -861.67,-861.69l-861.69 0c-474.63,0 -861.7,-387.07 -861.7,-861.69z"/>
   <path class="fil1" d="M2585.06 11201.93l0 861.69c0,474.58 -387.09,861.69 -861.69,861.69l-1723.37 0 0 -2585.06 1723.37 0c474.6,0 861.69,-387.1 861.69,-861.69l0 -861.69c0,-474.62 -387.09,-861.69 -861.69,-861.69l-861.69 0c-474.58,0 -861.69,-387.1 -861.69,-861.69l0 -861.69c0,-474.58 387.1,-861.69 861.69,-861.69l861.69 0c474.6,0 861.69,-387.1 861.69,-861.69l0 -861.69c0,-474.58 387.1,-861.69 861.7,-861.69l1723.35 0 0 2585.06 -1723.35 0c-474.62,0 -861.7,387.07 -861.7,861.69l0 861.69c0,474.58 387.08,861.69 861.7,861.69l861.69 0c474.58,0 861.67,387.1 861.67,861.69l0 861.69c0,474.58 -387.08,861.69 -861.67,861.69l-861.69 0c-474.62,0 -861.7,387.07 -861.7,861.69z"/>
  </g>
 </g>
</svg>
