<?xml version="1.0" encoding="UTF-8"?>
<!DOCTYPE svg PUBLIC "-//W3C//DTD SVG 1.1//EN" "http://www.w3.org/Graphics/SVG/1.1/DTD/svg11.dtd">
<!-- Creator: CorelDRAW 2020 (64-Bit) -->
<svg xmlns="http://www.w3.org/2000/svg" xml:space="preserve" width="95.9997mm" height="120mm" version="1.1" style="shape-rendering:geometricPrecision; text-rendering:geometricPrecision; image-rendering:optimizeQuality; fill-rule:evenodd; clip-rule:evenodd"
viewBox="0 0 4019.5 5024.4"
 xmlns:xlink="http://www.w3.org/1999/xlink"
 xmlns:xodm="http://www.corel.com/coreldraw/odm/2003">
 <defs>
  <style type="text/css">
   <![CDATA[
    .fil1 {fill:#55C171}
    .fil0 {fill:#3A4458}
   ]]>
  </style>
 </defs>
 <g id="Plan_x0020_1">
  <metadata id="CorelCorpID_0Corel-Layer"/>
  <path class="fil0" d="M1004.87 669.92l0 -334.96c0,-184.48 150.47,-334.96 334.96,-334.96l669.92 0 0 1004.88 -669.92 0c-184.49,0 -334.96,150.48 -334.96,334.96l0 334.96c0,184.5 150.47,334.96 334.96,334.96l334.96 0c184.48,0 334.96,150.48 334.96,334.96l0 334.96c0,184.48 -150.48,334.96 -334.96,334.96l-334.96 0c-184.49,0 -334.96,150.48 -334.96,334.96l0 334.96c0,184.48 -150.48,334.96 -334.96,334.96l-669.91 0 0 -1004.88 669.91 0c184.5,0 334.96,-150.46 334.96,-334.96l0 -334.96c0,-184.48 -150.46,-334.96 -334.96,-334.96l-334.96 0c-184.48,0 -334.95,-150.48 -334.95,-334.96l0 -334.96c0,-184.48 150.47,-334.96 334.95,-334.96l334.96 0c184.5,0 334.96,-150.46 334.96,-334.96z"/>
  <path class="fil1" d="M3014.62 4354.48l0 334.96c0,184.48 150.47,334.96 334.96,334.96l669.92 0 0 -1004.88 -669.92 0c-184.49,0 -334.96,-150.48 -334.96,-334.96l0 -334.96c0,-184.5 150.47,-334.96 334.96,-334.96l334.96 0c184.48,0 334.96,-150.48 334.96,-334.96l0 -334.96c0,-184.48 -150.48,-334.96 -334.96,-334.96l-334.96 0c-184.49,0 -334.96,-150.48 -334.96,-334.96l0 -334.96c0,-184.48 -150.48,-334.96 -334.96,-334.96l-669.91 0 0 1004.88 669.91 0c184.5,0 334.96,150.46 334.96,334.96l0 334.96c0,184.48 -150.47,334.96 -334.96,334.96l-334.96 0c-184.48,0 -334.95,150.48 -334.95,334.96l0 334.96c0,184.48 150.47,334.96 334.95,334.96l334.96 0c184.5,0 334.96,150.46 334.96,334.96z"/>
 </g>
</svg>
